<svg width="40" height="50" viewBox="0 0 40 50" fill="none" xmlns="http://www.w3.org/2000/svg">
<g clip-path="url(#clip0_38_96)">
<path d="M13.0936 42.5872C10.8348 40.5224 10.1754 36.1839 11.1165 33.0408C12.7482 35.0225 15.0092 35.6502 17.3511 36.0046C20.9666 36.5514 24.5172 36.3468 27.8758 34.6944C28.26 34.5052 28.615 34.2536 29.0348 33.9988C29.35 34.9131 29.432 35.8361 29.3219 36.7755C29.0543 39.0634 27.9157 40.8308 26.1047 42.1705C25.3806 42.7064 24.6143 43.1854 23.8664 43.6906C21.5687 45.2436 20.9471 47.0645 21.8105 49.7131C21.831 49.7781 21.8494 49.8425 21.8958 50C20.7226 49.4748 19.8657 48.7103 19.2128 47.7052C18.5232 46.6446 18.1951 45.4711 18.1778 44.2014C18.1692 43.5835 18.1692 42.9601 18.0861 42.3509C17.8832 40.8658 17.186 40.2008 15.8726 40.1625C14.5246 40.1232 13.4584 40.9565 13.1756 42.2689C13.154 42.3695 13.1227 42.469 13.0914 42.5861L13.0936 42.5872Z" fill="white"/>
<path d="M13.0936 42.5872C10.8348 40.5224 10.1754 36.1839 11.1165 33.0408C12.7482 35.0225 15.0092 35.6502 17.3511 36.0046C20.9666 36.5514 24.5172 36.3468 27.8758 34.6944C28.26 34.5052 28.615 34.2536 29.0348 33.9988C29.35 34.9131 29.432 35.8361 29.3219 36.7755C29.0543 39.0634 27.9157 40.8308 26.1047 42.1705C25.3806 42.7064 24.6143 43.1854 23.8664 43.6906C21.5687 45.2436 20.9471 47.0645 21.8105 49.7131C21.831 49.7781 21.8494 49.8425 21.8958 50C20.7226 49.4748 19.8657 48.7103 19.2128 47.7052C18.5232 46.6446 18.1951 45.4711 18.1778 44.2014C18.1692 43.5835 18.1692 42.9601 18.0861 42.3509C17.8832 40.8658 17.186 40.2008 15.8726 40.1625C14.5246 40.1232 13.4584 40.9565 13.1756 42.2689C13.154 42.3695 13.1227 42.469 13.0914 42.5861L13.0936 42.5872Z" fill="url(#paint0_linear_38_96)"/>
<path d="M0.201416 32.5171C0.201416 32.5171 6.89016 29.2587 13.5976 29.2587L18.6547 13.6077C18.8441 12.8508 19.3969 12.3364 20.021 12.3364C20.6451 12.3364 21.1979 12.8508 21.3873 13.6077L26.4445 29.2587C34.3884 29.2587 39.8406 32.5171 39.8406 32.5171C39.8406 32.5171 28.4792 1.56651 28.457 1.50441C28.1309 0.589346 27.5804 0 26.8383 0H13.2049C12.4627 0 11.9345 0.589346 11.5862 1.50441C11.5616 1.56534 0.201416 32.5171 0.201416 32.5171Z" fill="white"/>
</g>
<defs>
<linearGradient id="paint0_linear_38_96" x1="10.7015" y1="50" x2="32.5122" y2="39.6948" gradientUnits="userSpaceOnUse">
<stop stop-color="#D83333"/>
<stop offset="1" stop-color="#F041FF"/>
</linearGradient>
<clipPath id="clip0_38_96">
<rect width="39.7196" height="50" fill="white" transform="translate(0.201416)"/>
</clipPath>
</defs>
</svg>
