<svg width="35" height="35" viewBox="0 0 35 35" fill="none" xmlns="http://www.w3.org/2000/svg">
  <path d="M23.1931 19.192L20.0995 22.2856L28.844 31.0301L31.9375 27.9365L23.1931 19.192Z"
    fill="#00C7A2" />
  <path
    d="M25.5206 14.7433C28.3352 14.7433 30.6248 12.4537 30.6248 9.63912C30.6248 8.79329 30.3914 8.00579 30.0268 7.30579L26.0893 11.2433L23.9164 9.07037L27.8539 5.13287C27.1539 4.76829 26.3664 4.53495 25.5206 4.53495C22.706 4.53495 20.4164 6.82454 20.4164 9.63912C20.4164 10.237 20.5331 10.8058 20.7227 11.3308L18.0248 14.0287L15.4289 11.4329L16.4643 10.3975L14.4081 8.3412L17.4998 5.24954C15.7935 3.54329 13.0227 3.54329 11.3164 5.24954L6.15392 10.412L8.21017 12.4683H4.09767L3.06226 13.5037L8.22476 18.6662L9.26017 17.6308V13.5037L11.3164 15.56L12.3518 14.5245L14.9477 17.1204L4.14142 27.9266L7.23309 31.0183L23.8289 14.437C24.3539 14.6266 24.9227 14.7433 25.5206 14.7433Z"
    fill="#00C7A2" />
</svg>