<svg width="26" height="26" viewBox="0 0 26 26" fill="none" xmlns="http://www.w3.org/2000/svg">
<g clip-path="url(#clip0_83_81)">
<path fill-rule="evenodd" clip-rule="evenodd" d="M12.9619 0.336914C5.92674 0.336914 0.239502 6.06608 0.239502 13.1538C0.239502 18.8195 3.88351 23.6153 8.93872 25.3127C9.57075 25.4403 9.80226 25.0369 9.80226 24.6976C9.80226 24.4005 9.78143 23.382 9.78143 22.3208C6.24237 23.0848 5.50539 20.7929 5.50539 20.7929C4.93664 19.3075 4.09393 18.9257 4.09393 18.9257C2.9356 18.1406 4.1783 18.1406 4.1783 18.1406C5.4632 18.2255 6.13742 19.4562 6.13742 19.4562C7.27466 21.4083 9.10721 20.8567 9.84445 20.5171C9.94966 19.6895 10.2869 19.1166 10.645 18.7984C7.82231 18.5012 4.85252 17.3979 4.85252 12.4747C4.85252 11.0742 5.35773 9.92832 6.15825 9.03717C6.03195 8.71895 5.5895 7.40306 6.28481 5.64186C6.28481 5.64186 7.35903 5.30228 9.78117 6.95749C10.8182 6.67693 11.8876 6.53421 12.9619 6.53301C14.0361 6.53301 15.1312 6.68171 16.1424 6.95749C18.5648 5.30228 19.639 5.64186 19.639 5.64186C20.3343 7.40306 19.8916 8.71895 19.7653 9.03717C20.5869 9.92832 21.0713 11.0742 21.0713 12.4747C21.0713 17.3979 18.1015 18.4799 15.2577 18.7984C15.7213 19.2015 16.1213 19.9653 16.1213 21.1749C16.1213 22.8937 16.1004 24.2731 16.1004 24.6973C16.1004 25.0369 16.3322 25.4403 16.964 25.313C22.0192 23.615 25.6632 18.8195 25.6632 13.1538C25.684 6.06608 19.976 0.336914 12.9619 0.336914Z" fill="#0F0920"/>
</g>
<defs>
<clipPath id="clip0_83_81">
<rect width="25.5208" height="25" fill="white" transform="translate(0.239502 0.336914)"/>
</clipPath>
</defs>
</svg>
