<svg width="26" height="26" viewBox="0 0 26 26" fill="none" xmlns="http://www.w3.org/2000/svg">
<g clip-path="url(#clip0_83_77)">
<path d="M7.71521 0.424458C6.3575 0.487208 5.43033 0.699458 4.61979 1.01146C3.78092 1.33171 3.06991 1.76146 2.36247 2.45696C1.65503 3.15246 1.21939 3.84946 0.894765 4.67246C0.580603 5.46821 0.367759 6.37721 0.307785 7.70796C0.247811 9.03871 0.234541 9.46646 0.241176 12.861C0.247811 16.2555 0.263124 16.681 0.328968 18.0145C0.393791 19.3442 0.609697 20.2522 0.928197 21.0465C1.25563 21.8682 1.69382 22.5645 2.40407 23.2577C3.11431 23.951 3.82532 24.3767 4.66751 24.6952C5.47907 25.0025 6.40727 25.212 7.76548 25.2702C9.1237 25.3285 9.56087 25.342 13.0251 25.3355C16.4893 25.329 16.9254 25.314 18.2864 25.2507C19.6475 25.1875 20.5695 24.9745 21.3806 24.664C22.2195 24.3425 22.9307 23.914 23.6379 23.218C24.3451 22.522 24.7805 21.8245 25.1048 21.001C25.4193 20.206 25.6329 19.2967 25.6918 17.9672C25.7513 16.633 25.7653 16.207 25.7587 12.813C25.7521 9.41896 25.7365 8.99346 25.6719 7.66046C25.6074 6.32746 25.3912 5.42221 25.0729 4.62746C24.745 3.80571 24.3073 3.10996 23.5973 2.41621C22.8873 1.72246 22.1748 1.29621 21.3344 0.979208C20.5223 0.671458 19.5946 0.461708 18.2364 0.404208C16.8782 0.346708 16.441 0.331958 12.9756 0.338458C9.51009 0.344958 9.07623 0.359458 7.71521 0.424458ZM7.86425 23.0215C6.62011 22.9685 5.94457 22.766 5.49438 22.5965C4.89822 22.3715 4.47355 22.0995 4.0249 21.6642C3.57624 21.229 3.30061 20.8115 3.06786 20.2287C2.89305 19.7877 2.6825 19.1267 2.62431 17.908C2.56102 16.5907 2.54775 16.1952 2.54035 12.858C2.53295 9.52071 2.54596 9.12571 2.60492 7.80796C2.658 6.59021 2.86599 5.92771 3.03877 5.48696C3.26846 4.90221 3.5451 4.48696 3.99044 4.04771C4.43578 3.60846 4.8607 3.33796 5.4561 3.10996C5.90578 2.93796 6.58055 2.73346 7.82418 2.67546C9.1699 2.61296 9.57312 2.60046 12.9794 2.59321C16.3857 2.58596 16.7899 2.59846 18.1361 2.65646C19.3792 2.70946 20.0558 2.91121 20.5052 3.08146C21.1017 3.30646 21.5261 3.57671 21.9745 4.01371C22.4229 4.45071 22.6993 4.86546 22.932 5.44996C23.1078 5.88921 23.3166 6.54996 23.3753 7.76896C23.4394 9.08721 23.4539 9.48246 23.46 12.819C23.4662 16.1555 23.4542 16.5517 23.3952 17.869C23.3408 19.0877 23.1346 19.7497 22.9614 20.1912C22.7317 20.775 22.4548 21.1912 22.0092 21.6302C21.5636 22.0692 21.1392 22.3397 20.5435 22.5677C20.0943 22.7395 19.4188 22.9445 18.1762 23.0025C16.8305 23.0645 16.4273 23.0775 13.0197 23.0847C9.61217 23.092 9.21022 23.0785 7.8645 23.0215M18.2668 6.15621C18.2673 6.4529 18.3576 6.74278 18.5263 6.98919C18.695 7.2356 18.9345 7.42747 19.2145 7.54053C19.4946 7.65359 19.8025 7.68276 20.0995 7.62436C20.3964 7.56595 20.669 7.4226 20.8828 7.21242C21.0966 7.00224 21.2419 6.73468 21.3004 6.44358C21.359 6.15248 21.3281 5.85092 21.2116 5.57703C21.0952 5.30314 20.8984 5.06922 20.6463 4.90487C20.3941 4.74052 20.0979 4.65312 19.795 4.65371C19.389 4.6545 18.9999 4.81323 18.7133 5.09499C18.4267 5.37675 18.2661 5.75847 18.2668 6.15621ZM6.4481 12.8495C6.45524 16.3945 9.39422 19.2617 13.0123 19.255C16.6304 19.2482 19.5594 16.3695 19.5525 12.8245C19.5456 9.27946 16.6059 6.41146 12.9873 6.41846C9.3687 6.42546 6.44121 9.30496 6.4481 12.8495ZM8.7465 12.845C8.74484 12.0209 8.99268 11.2148 9.45868 10.5287C9.92468 9.84253 10.5879 9.30718 11.3645 8.9903C12.1411 8.67343 12.9962 8.58925 13.8216 8.74843C14.6471 8.9076 15.4058 9.30298 16.0018 9.88455C16.5979 10.4661 17.0045 11.2078 17.1702 12.0157C17.336 12.8237 17.2534 13.6616 16.933 14.4236C16.6126 15.1856 16.0688 15.8374 15.3702 16.2966C14.6716 16.7559 13.8498 17.0018 13.0085 17.0035C12.4499 17.0046 11.8965 16.8979 11.38 16.6896C10.8635 16.4812 10.3939 16.1752 9.99815 15.789C9.60237 15.4029 9.28813 14.9441 9.07337 14.439C8.85861 13.9338 8.74754 13.3922 8.7465 12.845Z" fill="#0F0920"/>
</g>
<defs>
<clipPath id="clip0_83_77">
<rect width="25.5208" height="25" fill="white" transform="translate(0.239624 0.336914)"/>
</clipPath>
</defs>
</svg>
