<svg width="85" height="52" viewBox="0 0 85 52" fill="none" xmlns="http://www.w3.org/2000/svg">
  <g clip-path="url(#clip0_38_446)">
    <path d="M0 23.0035H33.4333C35.6241 23.0035 37.4 24.7795 37.4 26.9702V31.5035H0V23.0035Z"
      fill="#00C7A2" />
    <path
      d="M29.6 27.5369H68.1333V36.0369H33.5666C31.3759 36.0369 29.6 34.2609 29.6 32.0702V27.5369Z"
      fill="#00C7A2" />
    <path
      d="M0 11.4936V0.336914H37.4V11.211L15.7023 40.0338L37.4 39.7512V51.3369H0V40.3164L21.6977 11.4936H0Z"
      fill="#F9F9F9" />
    <path
      d="M51.5365 0.336914L37 39.6554V51.3369H45.8359L48.9712 42.2196L58.6625 14.0129L68.3531 42.2196L71.4885 51.3369H84.6L66.0728 0.336914H51.5365Z"
      fill="#F9F9F9" />
  </g>
  <defs>
    <clipPath id="clip0_38_446">
      <rect width="85" height="51" fill="white" transform="translate(0 0.336914)" />
    </clipPath>
  </defs>
</svg>