<svg width="51" height="50" viewBox="0 0 51 50" fill="none" xmlns="http://www.w3.org/2000/svg">
<g clip-path="url(#clip0_38_221)">
<mask id="mask0_38_221" style="mask-type:alpha" maskUnits="userSpaceOnUse" x="0" y="0" width="51" height="50">
<path d="M25.0613 50C38.8684 50 50.0613 38.8071 50.0613 25C50.0613 11.1929 38.8684 0 25.0613 0C11.2542 0 0.0612793 11.1929 0.0612793 25C0.0612793 38.8071 11.2542 50 25.0613 50Z" fill="black"/>
</mask>
<g mask="url(#mask0_38_221)">
<path d="M25.0613 50C38.8684 50 50.0613 38.8071 50.0613 25C50.0613 11.1929 38.8684 0 25.0613 0C11.2542 0 0.0612793 11.1929 0.0612793 25C0.0612793 38.8071 11.2542 50 25.0613 50Z" fill="black"/>
<path d="M41.5913 43.7556L19.2674 15H15.0613V34.9917H18.4262V19.2732L38.9499 45.7903C39.876 45.1706 40.7582 44.4903 41.5913 43.7556Z" fill="url(#paint0_linear_38_221)"/>
<path d="M35.3389 15H32.0056V35H35.3389V15Z" fill="url(#paint1_linear_38_221)"/>
</g>
</g>
<defs>
<linearGradient id="paint0_linear_38_221" x1="30.3391" y1="32.3611" x2="40.2002" y2="44.5833" gradientUnits="userSpaceOnUse">
<stop stop-color="white"/>
<stop offset="1" stop-color="white" stop-opacity="0"/>
</linearGradient>
<linearGradient id="paint1_linear_38_221" x1="33.6723" y1="15" x2="33.6164" y2="29.6875" gradientUnits="userSpaceOnUse">
<stop stop-color="white"/>
<stop offset="1" stop-color="white" stop-opacity="0"/>
</linearGradient>
<clipPath id="clip0_38_221">
<rect width="50" height="50" fill="white" transform="translate(0.0612793)"/>
</clipPath>
</defs>
</svg>
