<svg width="57" height="50" viewBox="0 0 57 50" fill="none" xmlns="http://www.w3.org/2000/svg">
<g clip-path="url(#clip0_38_97)">
<path d="M46.1436 16.1894C45.5463 15.9845 44.944 15.7946 44.3372 15.6199C44.4391 15.2033 44.5329 14.7916 44.6163 14.3872C45.9838 7.74667 45.0898 2.39689 42.0362 0.635488C39.1084 -1.05311 34.3202 0.707637 29.4845 4.91751C29.0079 5.33315 28.5419 5.76077 28.087 6.19996C27.7824 5.90791 27.4724 5.62154 27.1572 5.34097C22.0891 0.839655 17.0092 -1.05749 13.9589 0.708953C11.0337 2.40281 10.1675 7.43198 11.3987 13.7254C11.5212 14.3487 11.6595 14.9688 11.8135 15.5851C11.0944 15.7894 10.4006 16.007 9.73654 16.2386C3.7946 18.3109 0 21.5585 0 24.9272C0 28.4063 4.07368 31.896 10.2625 34.012C10.7642 34.1829 11.2701 34.3412 11.7797 34.4868C11.6142 35.1506 11.4673 35.8188 11.3391 36.4908C10.1653 42.675 11.0819 47.5853 13.9992 49.2684C17.0123 51.0065 22.0694 49.2201 26.9935 44.9142C27.3927 44.5642 27.7832 44.2042 28.1646 43.8346C28.6573 44.3102 29.1632 44.7719 29.6816 45.2193C34.4516 49.325 39.1623 50.9829 42.0767 49.2951C45.0869 47.5519 46.0653 42.2769 44.7951 35.8592C44.6951 35.3564 44.5829 34.8561 44.4586 34.3587C44.8138 34.2535 45.1623 34.1451 45.5022 34.0324C51.936 31.9002 56.1222 28.4528 56.1222 24.9272C56.1222 21.5462 52.205 18.2767 46.1436 16.1894ZM44.7482 31.7561C44.4413 31.8576 44.1265 31.9557 43.8055 32.0511C43.0953 29.8017 42.1368 27.4101 40.9637 24.9388C42.0831 22.5265 43.0047 20.1653 43.6951 17.9307C44.2692 18.0969 44.8263 18.2721 45.3634 18.457C50.5569 20.2456 53.7247 22.8897 53.7247 24.9272C53.7247 27.0973 50.3034 29.9147 44.7482 31.7561ZM42.4433 36.325C43.0049 39.1627 43.085 41.7285 42.7129 43.7344C42.3788 45.5368 41.7067 46.7383 40.8754 47.2197C39.1069 48.2438 35.3245 46.9127 31.2454 43.4013C30.7631 42.9854 30.2926 42.5561 29.8342 42.114C31.4157 40.384 32.9961 38.3728 34.5386 36.139C37.2518 35.8982 39.815 35.5044 42.1394 34.9669C42.2514 35.4171 42.3527 35.8699 42.4433 36.325ZM19.1333 47.0427C17.4053 47.653 16.029 47.6706 15.1971 47.1908C13.4268 46.1695 12.6908 42.2267 13.6947 36.9381C13.814 36.3132 13.9506 35.6917 14.1044 35.0743C16.4032 35.5831 18.9478 35.9489 21.6673 36.1695C23.2203 38.3552 24.8463 40.3642 26.4851 42.1234C26.1368 42.4605 25.7803 42.789 25.4159 43.1085C23.2383 45.0125 21.0563 46.3633 19.1333 47.0427ZM11.0381 31.7427C8.30148 30.807 6.04146 29.591 4.4924 28.264C3.10031 27.0717 2.39769 25.8877 2.39769 24.9272C2.39769 22.8829 5.44429 20.2754 10.5258 18.5033C11.1424 18.2883 11.7878 18.0855 12.4576 17.8951C13.16 20.1802 14.0812 22.5695 15.1929 24.9855C14.0667 27.4372 13.1324 29.8647 12.4232 32.1767C11.958 32.0434 11.4962 31.8987 11.0381 31.7427ZM13.7517 13.2647C12.697 7.87277 13.3974 3.80544 15.1602 2.78461C17.0377 1.69733 21.1894 3.24755 25.5654 7.13439C25.8508 7.38842 26.1315 7.6476 26.4075 7.9118C24.7768 9.66334 23.1657 11.6574 21.6266 13.8302C18.9871 14.075 16.4605 14.4679 14.1375 14.9945C13.9944 14.4213 13.8658 13.8443 13.7517 13.2647ZM37.9603 19.2445C37.4116 18.2964 36.8426 17.3603 36.2536 16.4368C38.0443 16.6633 39.7599 16.964 41.371 17.3315C40.8874 18.8824 40.2845 20.5037 39.5749 22.166C39.0562 21.1815 38.5179 20.2075 37.9603 19.2445ZM28.0881 9.62584C29.1938 10.8243 30.3014 12.1622 31.3907 13.614C29.1809 13.5096 26.9674 13.5092 24.7576 13.6127C25.848 12.1743 26.965 10.8381 28.0881 9.62584ZM18.1525 19.2609C17.6018 20.2162 17.0736 21.1841 16.5681 22.164C15.8701 20.5076 15.2727 18.8789 14.7849 17.3061C16.3861 16.9478 18.0937 16.6548 19.873 16.4324C19.2774 17.3616 18.7037 18.3048 18.1525 19.2609ZM19.924 33.5925C18.0858 33.3872 16.3526 33.1094 14.7518 32.7607C15.2473 31.1598 15.8578 29.4965 16.5709 27.8046C17.0784 28.7852 17.6089 29.7537 18.1619 30.7094C18.7306 31.6919 19.3194 32.6541 19.924 33.5925ZM28.1543 40.3973C27.0178 39.171 25.8844 37.8142 24.7775 36.355C25.8522 36.3971 26.9476 36.4186 28.0611 36.4186C29.205 36.4186 30.3358 36.3929 31.4488 36.3434C30.356 37.8289 29.2526 39.1877 28.1543 40.3973ZM39.5975 27.7182C40.3477 29.4287 40.9799 31.0833 41.482 32.6568C39.8549 33.0283 38.098 33.3274 36.2468 33.5495C36.84 32.6089 37.4144 31.6565 37.9697 30.693C38.5343 29.7136 39.077 28.7217 39.5975 27.7182ZM35.893 29.4947C35.0429 30.972 34.1449 32.4212 33.2007 33.8401C31.4902 33.9613 29.7759 34.0215 28.0611 34.0206C26.3145 34.0206 24.6157 33.9662 22.9798 33.8601C22.0109 32.4444 21.0959 30.9927 20.2366 29.5079C19.3815 28.0309 18.5829 26.522 17.8422 24.9844C18.581 23.4464 19.3774 21.9368 20.2296 20.4587L20.2294 20.459C21.0813 18.9805 21.9891 17.5349 22.9507 16.1254C24.6197 15.9991 26.3312 15.9333 28.0609 15.9333C29.7985 15.9333 31.5124 15.9997 33.1809 16.1269C34.1328 17.5344 35.0348 18.975 35.8851 20.446C36.7402 21.9208 37.5471 23.4231 38.3045 24.9504C37.5548 26.4933 36.7505 28.0091 35.893 29.4947ZM40.8387 2.71312C42.718 3.79733 43.4489 8.16948 42.2681 13.903C42.1927 14.2688 42.1081 14.6414 42.016 15.0193C39.6874 14.4815 37.159 14.0818 34.5119 13.8333C32.9698 11.6366 31.3719 9.63944 29.7678 7.91049C30.1882 7.50512 30.6186 7.11026 31.0586 6.72628C35.202 3.11948 39.0744 1.69536 40.8387 2.71312ZM28.0611 19.914C30.8288 19.914 33.0726 22.1585 33.0726 24.9272C33.0726 27.6958 30.8288 29.9403 28.0611 29.9403C25.2933 29.9403 23.0496 27.6958 23.0496 24.9272C23.0496 22.1585 25.2933 19.914 28.0611 19.914Z" fill="#00D8FF"/>
</g>
<defs>
<clipPath id="clip0_38_97">
<rect width="56.1224" height="50" fill="white"/>
</clipPath>
</defs>
</svg>
