<svg width="51" height="51" viewBox="0 0 51 51" fill="none" xmlns="http://www.w3.org/2000/svg">
<g clip-path="url(#clip0_100_99)">
<path d="M0.0612793 17.8889C0.0612793 9.71788 0.0612793 5.63236 2.59969 3.09395C5.1381 0.555542 9.22361 0.555542 17.3946 0.555542H32.7279C40.8989 0.555542 44.9844 0.555542 47.5229 3.09395C50.0613 5.63236 50.0613 9.71788 50.0613 17.8889V33.2222C50.0613 41.3932 50.0613 45.4787 47.5229 48.0171C44.9844 50.5555 40.8989 50.5555 32.7279 50.5555H17.3946C9.22361 50.5555 5.1381 50.5555 2.59969 48.0171C0.0612793 45.4787 0.0612793 41.3932 0.0612793 33.2222V17.8889Z" fill="#4945FF"/>
<path fill-rule="evenodd" clip-rule="evenodd" d="M34.5614 15.7222H17.728V24.3055H26.3114V32.8888H34.8947V16.0555C34.8947 15.8714 34.7454 15.7222 34.5614 15.7222Z" fill="white"/>
<path d="M26.3114 24.3055H25.978V24.6389H26.3114V24.3055Z" fill="white"/>
<path d="M17.728 24.3055H25.978C26.1621 24.3055 26.3114 24.4548 26.3114 24.6389V32.8889H18.0614C17.8773 32.8889 17.728 32.7396 17.728 32.5555V24.3055Z" fill="#9593FF"/>
<path d="M26.3113 32.8889H34.8946L26.5958 41.1877C26.4908 41.2927 26.3113 41.2183 26.3113 41.0699V32.8889Z" fill="#9593FF"/>
<path d="M17.7279 24.3055H9.54688C9.39838 24.3055 9.32404 24.126 9.42904 24.021L17.7279 15.7222V24.3055Z" fill="#9593FF"/>
</g>
<defs>
<clipPath id="clip0_100_99">
<rect width="50" height="50" fill="white" transform="translate(0.0612793 0.555542)"/>
</clipPath>
</defs>
</svg>
