<svg width="51" height="31" viewBox="0 0 51 31" fill="none" xmlns="http://www.w3.org/2000/svg">
<g clip-path="url(#clip0_94_95)">
<mask id="mask0_94_95" style="mask-type:luminance" maskUnits="userSpaceOnUse" x="0" y="0" width="51" height="30">
<path d="M0.0612793 0H50.0613V30H0.0612793V0Z" fill="white"/>
</mask>
<g mask="url(#mask0_94_95)">
<path fill-rule="evenodd" clip-rule="evenodd" d="M25.0613 0C18.3946 0 14.2279 3.33333 12.5613 10C15.0613 6.66667 17.9779 5.41667 21.3113 6.25C23.2131 6.725 24.5724 8.10556 26.077 9.63241C28.5279 12.1204 31.365 15 37.5613 15C44.2279 15 48.3946 11.6667 50.0613 5C47.5613 8.33333 44.6446 9.58333 41.3113 8.75C39.4094 8.275 38.0502 6.89444 36.5455 5.36759C34.0946 2.87963 31.2576 0 25.0613 0ZM12.5613 15C5.89461 15 1.72795 18.3333 0.0612793 25C2.56128 21.6667 5.47795 20.4167 8.81128 21.25C10.7131 21.7259 12.0724 23.1056 13.577 24.6324C16.0279 27.1204 18.865 30 25.0613 30C31.7279 30 35.8946 26.6667 37.5613 20C35.0613 23.3333 32.1446 24.5833 28.8113 23.75C26.9094 23.275 25.5502 21.8944 24.0455 20.3676C21.5946 17.8796 18.7576 15 12.5613 15Z" fill="#38BDF8"/>
</g>
</g>
<defs>
<clipPath id="clip0_94_95">
<rect width="50" height="30.5556" fill="white" transform="translate(0.0612793)"/>
</clipPath>
</defs>
</svg>
