<svg width="35" height="35" viewBox="0 0 35 35" fill="none" xmlns="http://www.w3.org/2000/svg">
  <path
    d="M11.6686 7.43567L15.3144 9.47734L13.2728 5.8315L15.3144 2.18567L11.6686 4.22734L8.02277 2.18567L10.0644 5.8315L8.02277 9.47734L11.6686 7.43567ZM29.1686 21.7273L25.5228 19.6857L27.5644 23.3315L25.5228 26.9773L29.1686 24.9357L32.8144 26.9773L30.7728 23.3315L32.8144 19.6857L29.1686 21.7273ZM32.8144 2.18567L29.1686 4.22734L25.5228 2.18567L27.5644 5.8315L25.5228 9.47734L29.1686 7.43567L32.8144 9.47734L30.7728 5.8315L32.8144 2.18567ZM21.6874 9.90025C21.1186 9.3315 20.1999 9.3315 19.6311 9.90025L2.61235 26.919C2.0436 27.4878 2.0436 28.4065 2.61235 28.9753L6.02485 32.3878C6.5936 32.9565 7.51235 32.9565 8.0811 32.3878L25.0853 15.3836C25.654 14.8148 25.654 13.8961 25.0853 13.3273L21.6874 9.90025ZM20.1853 17.9065L17.0936 14.8148L20.6519 11.2565L23.7436 14.3482L20.1853 17.9065Z"
    fill="#00C7A2" />
</svg>